<svg
        width="34"
        height="34"
        viewBox="0 0 34 34"
        fill="none"
        xmlns="http://www.w3.org/2000/svg"
>
    <path
            d="M31.8752 24.65H31.5564V9.19062C31.5564 7.96875 30.5471 6.90625 29.2721 6.90625H26.4033C25.1814 6.90625 24.1189 7.91562 24.1189 9.19062V24.65H20.7189V12.1656C20.7189 10.9437 19.7096 9.88125 18.4346 9.88125H15.5658C14.3439 9.88125 13.2814 10.8906 13.2814 12.1656V24.65H9.82832V15.6187C9.82832 14.3969 8.81895 13.3344 7.54395 13.3344H4.6752C3.45332 13.3344 2.39082 14.3437 2.39082 15.6187V24.65H2.1252C1.4877 24.65 0.90332 25.1813 0.90332 25.8719C0.90332 26.5625 1.43457 27.0938 2.1252 27.0938H31.8752C32.5127 27.0938 33.0971 26.5625 33.0971 25.8719C33.0971 25.1813 32.5127 24.65 31.8752 24.65Z"
            fill="#3C50E0"
    />
</svg>